<svg viewBox="0 0 48 48" fill="none" xmlns="http://www.w3.org/2000/svg">
  <defs>
    <linearGradient id="bg" x1="24" y1="4" x2="24" y2="44" gradientUnits="userSpaceOnUse">
      <stop stop-color="#F0F8FF"/>
      <stop offset="1" stop-color="#DCEEF8"/>
    </linearGradient>
  </defs>
  <rect width="48" height="48" rx="12" fill="url(#bg)"/>
  <ellipse cx="16" cy="14" rx="4.2" ry="5.2" fill="#9B7FD4" transform="rotate(-8 16 14)"/>
  <ellipse cx="24" cy="10" rx="4.5" ry="5.5" fill="#FFD93D"/>
  <ellipse cx="32" cy="13" rx="4" ry="5" fill="#FF9F43" transform="rotate(10 32 13)"/>
  <ellipse cx="20" cy="20" rx="3.6" ry="4.6" fill="#FF8FAB" transform="rotate(-14 20 20)"/>
  <ellipse cx="28" cy="19" rx="3.8" ry="4.8" fill="#7BC67E" transform="rotate(8 28 19)"/>
  <ellipse cx="24" cy="16" rx="3.4" ry="4.2" fill="#5DCCF5"/>
  <path d="M16 19 Q20 26 24 30" stroke="#8a8480" stroke-width="0.6" stroke-linecap="round" opacity="0.5" fill="none"/>
  <path d="M24 15 Q24 24 24 30" stroke="#8a8480" stroke-width="0.6" stroke-linecap="round" opacity="0.5" fill="none"/>
  <path d="M32 18 Q28 26 24 30" stroke="#8a8480" stroke-width="0.6" stroke-linecap="round" opacity="0.5" fill="none"/>
  <path d="M20 24 Q22 28 24 30" stroke="#8a8480" stroke-width="0.6" stroke-linecap="round" opacity="0.5" fill="none"/>
  <path d="M28 23 Q26 28 24 30" stroke="#8a8480" stroke-width="0.6" stroke-linecap="round" opacity="0.5" fill="none"/>
  <path d="M8 34c0-3.8 2.8-6.9 6.4-7.5-.5-3.1 2.2-5.8 5.3-5.8 1.6 0 3 .7 3.9 1.8 1.1-1.6 2.9-2.6 4.9-2.6 3.2 0 5.8 2.6 5.8 5.8 0 .3 0 .7-.1 1 2.8.5 4.9 2.9 4.9 5.8 0 3.3-2.7 6-6 6H12.8c-2.8 0-5-2.2-5-5 0-2.4 1.7-4.4 3.9-4.9-.2-.4-.3-.9-.3-1.4 0-2.2 1.8-4 4-4 1 0 1.9.4 2.6 1 .7-1.7 2.4-2.9 4.3-2.9 2.6 0 4.7 2.1 4.9 4.7-.8.3-1.5.7-2 1.3-1.3-1.4-3.1-2.2-5.1-2.2-3.5 0-6.3 2.8-6.3 6.3 0 .5.1 1.1.2 1.6-2.2.7-3.8 2.8-3.8 5.2z" fill="#fff"/>
</svg>
