<svg viewBox="0 0 320 240" fill="none" xmlns="http://www.w3.org/2000/svg" role="img" aria-label=">74CH=>5 >1;0:>">
  <defs>
    <linearGradient id="sky" x1="160" y1="0" x2="160" y2="240" gradientUnits="userSpaceOnUse">
      <stop stop-color="#EAF6FF"/>
      <stop offset="1" stop-color="#D4EBFA"/>
    </linearGradient>
    <filter id="cloud-shadow" x="-20%" y="-20%" width="140%" height="140%">
      <feDropShadow dx="0" dy="4" stdDeviation="6" flood-color="#3d3a36" flood-opacity="0.1"/>
    </filter>
  </defs>
  <rect width="320" height="240" rx="24" fill="url(#sky)"/>
  <circle cx="48" cy="52" r="2.5" fill="#fff" opacity="0.9"/>
  <circle cx="268" cy="44" r="2" fill="#fff" opacity="0.85"/>
  <circle cx="72" cy="28" r="1.5" fill="#fff" opacity="0.8"/>
  <g>
    <ellipse cx="118" cy="58" rx="18" ry="22" fill="#9B7FD4" transform="rotate(-12 118 58)"/>
    <ellipse cx="148" cy="42" rx="20" ry="24" fill="#FFD93D"/>
    <ellipse cx="178" cy="48" rx="19" ry="23" fill="#FF9F43" transform="rotate(8 178 48)"/>
    <ellipse cx="202" cy="62" rx="17" ry="21" fill="#FF8FAB" transform="rotate(14 202 62)"/>
    <ellipse cx="132" cy="78" rx="16" ry="20" fill="#7BC67E" transform="rotate(-10 132 78)"/>
    <ellipse cx="162" cy="72" rx="17" ry="21" fill="#5DCCF5"/>
    <ellipse cx="192" cy="82" rx="15" ry="19" fill="#C4A0FF" transform="rotate(18 192 82)"/>
    <path d="M118 80 Q140 120 160 148" stroke="#8a8480" stroke-width="1.2" stroke-linecap="round" opacity="0.5" fill="none"/>
    <path d="M148 66 Q154 110 160 148" stroke="#8a8480" stroke-width="1.2" stroke-linecap="round" opacity="0.5" fill="none"/>
    <path d="M178 71 Q168 115 160 148" stroke="#8a8480" stroke-width="1.2" stroke-linecap="round" opacity="0.5" fill="none"/>
    <path d="M202 83 Q180 120 160 148" stroke="#8a8480" stroke-width="1.2" stroke-linecap="round" opacity="0.5" fill="none"/>
    <path d="M132 98 Q148 125 160 148" stroke="#8a8480" stroke-width="1.2" stroke-linecap="round" opacity="0.5" fill="none"/>
    <path d="M162 93 Q161 120 160 148" stroke="#8a8480" stroke-width="1.2" stroke-linecap="round" opacity="0.5" fill="none"/>
    <path d="M192 101 Q176 125 160 148" stroke="#8a8480" stroke-width="1.2" stroke-linecap="round" opacity="0.5" fill="none"/>
  </g>
  <g filter="url(#cloud-shadow)">
    <path d="M72 168c0-18 13-32 29-35-2-14 10-27 24-27 8 0 15 4 19 11 5-8 14-13 24-13 15 0 28 12 28 28 0 2-.2 4-.5 6 14 3 24 15 24 30 0 17-14 31-31 31H88c-14 0-25-11-25-25 0-12 9-22 20-25-1-2-1.5-4.5-1.5-7 0-11 9-20 20-20 5 0 9 2 12 5 4-8 12-14 21-14 12 0 22 10 23 22-4 1.5-7 4-9 7-6-6-14-10-23-10-16 0-29 13-29 29 0 2.5.4 5 1.2 7.5-10 3.5-17 13-17 24 0 14 11 25 25 25h144c16 0 29-13 29-29 0-15-11-28-26-31 1-3 1.5-6 1.5-9 0-16-13-29-29-29-10 0-19 5-24 13-4-7-11-11-19-11-14 0-26 13-24 27-16 3-29 17-29 35 0 19 15 34 34 34H88c-19 0-34-15-34-34z" fill="#fff"/>
    <ellipse cx="160" cy="172" rx="88" ry="8" fill="#E8DDD0" opacity="0.35"/>
  </g>
</svg>
